<svg width="63" height="85" viewBox="0 0 63 85" fill="none" xmlns="http://www.w3.org/2000/svg">
<path d="M49.1909 26.1356L31.6585 55.864H36.6222C31.9462 55.864 28.15 59.5763 28.15 64.1546C28.15 66.9966 29.6103 69.5067 31.8381 70.9996H4.88647L13.8091 55.864L31.3415 26.1356H30.0922C32.321 24.6427 33.7803 22.1378 33.7803 19.2948C33.7803 14.7122 29.984 11 25.308 11H58.1146L49.192 26.1356H49.1909Z" fill="url(#paint0_linear_1_6690)"/>
<path d="M33.7796 19.2948C33.7796 22.1367 32.3193 24.6427 30.0915 26.1356H0.58252C0.58252 17.7767 7.50309 11 16.0404 11H25.3074C29.9834 11 33.7796 14.7122 33.7796 19.2948Z" fill="url(#paint1_linear_1_6690)"/>
<path d="M62.4165 55.8644C62.4165 64.2233 55.496 71 46.9587 71H31.8398C29.5585 69.4725 28.0825 66.8783 28.1538 63.9524C28.2641 59.4192 32.1978 55.8644 36.8298 55.8644H62.4176H62.4165Z" fill="url(#paint2_linear_1_6690)"/>
<g filter="url(#filter0_d_1_6690)">
<path d="M21.5526 20.9785C21.5526 20.9785 22.1689 12.9976 33.1639 13.8196C33.1639 13.8196 39.6719 13.9225 41.487 19.094C41.487 19.094 42.2744 20.147 42.1978 25.1569C42.1978 25.1569 41.9668 25.645 42.4414 25.6188C42.4414 25.6188 44.9841 25.7605 43.867 28.9709C43.867 28.9709 42.981 30.3578 41.7989 29.8182C41.7989 29.8182 39.6708 36.5267 33.1292 37.1093C33.1292 37.1093 26.7588 38.2736 22.9227 32.7598C22.9227 32.7598 21.6597 30.7305 21.6471 29.857C21.6471 29.857 18.359 30.6024 19.2839 26.4408C19.2839 26.4408 19.8235 24.8996 21.2366 25.8246C21.2366 25.8246 21.4161 21.3207 21.5537 20.9785H21.5526Z" fill="#F5CDAE"/>
<path d="M27.0487 23.7442C27.0487 23.7442 26.0902 22.1348 24.4965 24.3783C24.4965 24.3783 24.4451 24.5411 24.7191 24.4728C24.7191 24.4728 25.0183 23.719 27.0476 23.7453L27.0487 23.7442Z" fill="#572E1A"/>
<path d="M36.1047 23.7442C36.1047 23.7442 37.0632 22.1348 38.6569 24.3783C38.6569 24.3783 38.7083 24.5411 38.4343 24.4728C38.4343 24.4728 38.1351 23.719 36.1058 23.7453L36.1047 23.7442Z" fill="#572E1A"/>
<path d="M25.0461 25.5774C25.0461 25.5774 25.1364 27.2089 27.0545 27.3454C27.0545 27.3454 28.6597 27.1354 28.814 25.8168C28.814 25.8168 28.8098 25.7265 28.6818 25.8294C28.6818 25.8294 26.8792 28.5055 25.1753 25.5942C25.1753 25.5942 25.1238 25.4525 25.0472 25.5774H25.0461Z" fill="#572E1A"/>
<path d="M34.2219 25.5774C34.2219 25.5774 34.3122 27.2089 36.2303 27.3454C36.2303 27.3454 37.8355 27.1354 37.9898 25.8168C37.9898 25.8168 37.9856 25.7265 37.8575 25.8294C37.8575 25.8294 36.0549 28.5055 34.3511 25.5942C34.3511 25.5942 34.2996 25.4525 34.223 25.5774H34.2219Z" fill="#572E1A"/>
<path d="M30.3804 28.9958C30.3804 28.9958 31.7032 28.0583 32.6407 28.9958" stroke="#D0987B" stroke-width="0.396144" stroke-miterlimit="10"/>
<path d="M28.6421 31.1712C28.6421 31.1712 31.6048 32.8835 34.3795 31.3256C34.3795 31.3256 34.3112 33.3297 31.5113 33.4147C31.5113 33.4147 29.4652 33.5512 28.6431 31.1712H28.6421Z" fill="#EBA68D"/>
<path d="M29.4454 31.7628C29.4454 31.7628 31.774 33.4236 33.5388 32.02C33.5388 32.02 33.5871 32.3371 33.0821 32.4998C33.0821 32.4998 31.0906 33.4835 29.5147 32.0284C29.5147 32.0284 29.4203 31.9518 29.4465 31.7628H29.4454Z" fill="#C47D69"/>
<path d="M30.792 52.3826C30.792 52.3826 31.4167 51.6761 31.4902 51.6246L31.4818 48.6105C31.4818 48.6105 31.6959 47.8609 31.4818 46.936L31.4902 44.1749C31.4902 44.1749 31.507 44.0217 31.4062 43.8988L31.2802 44.4825L31.1385 48.1402L30.9589 48.9391L30.9978 51.5207L30.6377 52.2524L30.792 52.3805V52.3826Z" fill="#E2B593"/>
<path d="M34.448 38.8327C34.448 38.8327 34.3619 38.6784 33.2659 38.6102L33.163 37.4459C33.163 37.4459 38.2495 36.4359 39.5849 39.7062L39.8243 39.8773C39.8243 39.8773 44.431 40.186 44.5685 47.5149C44.5685 47.5149 48.2251 49.8949 45.5449 52.1216C45.5449 52.1216 44.5045 50.529 40.4783 51.9337C40.4783 51.9337 37.2312 52.8408 34.8806 51.0256C34.8806 51.0256 33.5735 50.1668 32.7221 45.4373C32.7221 45.4373 32.7525 44.5355 32.4481 44.5995C32.4481 44.5995 32.3483 43.7334 31.9987 43.7523C31.9987 43.7523 31.7762 42.9051 31.4896 44.1764L31.4213 43.83C31.4213 43.83 31.4339 43.0888 30.7914 43.7932C30.7914 43.7932 30.5132 44.168 30.7484 44.5701C30.7484 44.5701 30.3116 44.4935 30.32 45.4268C30.32 45.4268 29.8802 49.9075 27.8498 51.1904C27.8498 51.1904 22.9344 53.1631 21.0888 51.4886C21.0888 51.4886 19.8426 48.716 23.178 47.4467C23.178 47.4467 31.6292 45.4341 34.4459 38.8327H34.448Z" fill="#F38E25"/>
<path opacity="0.5" d="M38.01 52.0607C38.01 52.0607 42.0173 49.8519 43.1731 48.4125C43.1731 48.4125 43.276 48.3957 43.276 48.6351C43.276 48.6351 41.9658 51.1222 40.5664 52.0093C40.5664 52.0093 38.0363 52.6129 38.01 52.0607Z" fill="#FB8C00"/>
<path d="M34.9445 53.5429C34.9445 53.5429 33.5745 54.6557 30.7998 54.8783C30.7998 54.8783 30.7788 55.0662 31.1672 55.0253C31.1672 55.0253 33.943 55.04 35.8348 54.2872C35.8348 54.2872 36.3146 53.629 34.9445 53.5429Z" fill="#D4662C"/>
<path opacity="0.5" d="M28.9072 50.3406C28.9072 50.3406 26.5608 51.2393 25.1226 51.2141C25.1226 51.2141 25.1226 51.3768 25.3882 51.3422L28.2311 51.1795L28.9072 50.3406Z" fill="#FB8C00"/>
<path opacity="0.5" d="M32.9922 47.9266C32.9922 47.9266 37.4194 45.1781 38.2928 42.5062C38.2928 42.5062 38.4472 42.3645 38.4346 42.5062C38.4346 42.5062 38.9511 46.6206 33.5402 49.3974L32.9932 47.9266H32.9922Z" fill="#FB8C00"/>
<path d="M29.5887 37.0262L29.6695 38.3689C29.6695 38.3689 29.7042 38.6597 29.0701 38.6944C29.0701 38.6944 23.213 39.6529 22.8707 40.1505C22.8707 40.1505 20.1306 42.4286 18.2556 47.7965C18.2556 47.7965 17.0998 50.545 17.6394 53.0877C17.6394 53.0877 17.5365 53.8845 20.4141 54.757C20.4141 54.757 25.4229 55.1423 28.5829 53.5244C28.5829 53.5244 31.3745 52.7791 31.6359 51.7523L31.49 51.6242L30.8695 52.2667C30.8695 52.2667 30.5094 52.4085 31.0753 51.5864L31.0501 48.8253C31.0501 48.8253 31.2558 48.8253 31.1782 48.2091C31.1782 48.2091 31.3325 45.1519 31.281 44.4842L31.4228 43.8291C31.4228 43.8291 31.5771 43.4827 31.0889 43.5079C31.0889 43.5079 30.4769 43.8165 30.7509 44.5693C30.7509 44.5693 30.3572 44.4328 30.3225 45.426C30.3225 45.426 29.6548 50.6836 27.5824 51.2998C27.5824 51.2998 22.7185 53.1497 21.0923 51.4878C21.0923 51.4878 19.7223 48.8852 23.1815 47.4459C23.1815 47.4459 26.4014 46.6921 30.3908 43.9184C30.3908 43.9184 33.6957 41.2297 34.4495 38.8319C34.4495 38.8319 34.5859 38.729 33.2673 38.6093L33.2191 37.4345L33.2012 37.1122L29.5897 37.0262H29.5887Z" fill="#F5CDAE"/>
<path d="M45.5479 52.1124C45.5479 52.1124 45.6676 53.6021 45.1542 53.7218C45.1542 53.7218 44.349 54.3727 44.2975 54.527C44.2975 54.527 43.7149 55.263 41.5407 55.2808C41.5407 55.2808 38.0982 55.3837 35.3581 53.9969C35.3581 53.9969 32.2579 52.6436 31.7099 52.2331C31.7099 52.2331 31.479 51.9423 31.4916 51.6169L31.4832 48.6028C31.4832 48.6028 31.6847 48.4148 31.4916 46.8222V44.1892C31.4916 44.1745 31.4937 44.1609 31.4979 44.1462C31.5199 44.0674 31.5997 43.7924 31.6249 43.8008C31.6249 43.8008 31.732 43.1394 32.0018 43.743C32.0018 43.743 32.3482 43.7042 32.4511 44.5903C32.4511 44.5903 32.7335 44.5136 32.7083 45.2968C32.7083 45.2968 33.3634 51.0122 35.8684 51.5518C35.8684 51.5518 38.0394 52.8357 41.443 51.6421C41.443 51.6421 44.1317 50.7602 45.549 52.1134L45.5479 52.1124Z" fill="#F6D0AF"/>
<path d="M29.9272 37.3243V38.1463L30.7829 37.7358H32.4269L32.9235 38.1463L32.9928 37.3243H29.9272Z" fill="#E3B493"/>
<path d="M48.7129 61.4213C48.7129 61.4213 47.0688 60.4627 45.0143 60.0858L43.2506 59.5893C39.7787 58.6371 40.374 57.8686 40.374 57.8686C41.4532 57.5988 40.9388 56.5458 40.9388 56.5458C40.2711 56.0964 41.5383 55.2912 41.5383 55.2912C37.8218 55.3469 34.5894 53.6661 34.5894 53.6661C33.3768 53.202 31.7086 52.2425 31.7086 52.2425C31.7086 52.2425 31.591 52.086 31.5511 51.9569C31.5511 51.9569 31.3432 52.3685 30.5055 52.7936C30.5055 52.7936 29.4126 53.3543 28.5842 53.5275C28.5842 53.5275 28.3281 53.7018 27.2971 54.0545L27.4431 62.6863L27.4452 62.827C27.4452 62.827 29.2005 64.9592 29.9711 66.5518C29.9711 66.5518 25.6678 65.4978 20.8637 62.8532C20.8637 62.8532 20.1068 62.3136 18.6433 62.2107C18.6433 62.2107 17.205 62.2359 16.4858 61.6711C16.4858 61.6711 15.9725 60.5499 19.3288 60.532L26.1623 60.5488C26.1623 60.5488 26.8468 60.6003 27.0872 61.6281L27.1733 62.6947L27.4473 62.827L27.2992 54.0545C27.2992 54.0545 23.6815 55.3721 20.0847 54.655C20.0847 54.655 20.0501 54.9794 20.3062 55.0329C20.3062 55.0329 20.2632 55.2398 20.4343 55.266C20.4343 55.266 20.3398 55.5915 20.6054 55.6261C20.6054 55.6261 20.6485 55.8403 20.5372 55.9253C20.5372 55.9253 19.8013 57.3552 21.5219 57.9463C21.5219 57.9463 22.0101 58.152 21.5986 58.3316C21.5986 58.3316 21.1314 59.4108 17.4989 59.7184C17.4989 59.7184 12.7106 60.6171 13.4035 64.8563C13.4035 64.8563 13.7122 67.9901 18.9519 70.0457C18.9519 70.0457 22.7933 71.8693 31.1091 69.5838C31.1091 69.5838 31.6288 69.5964 31.886 69.8662C31.886 69.8662 38.3383 72.5548 45.2222 68.9927C45.2222 68.9927 52.1406 66.0469 48.7161 61.4233L48.7129 61.4213ZM38.9861 62.6884C38.9861 62.6884 33.8482 63.0653 33.1973 62.7231C33.1973 62.7231 33.2655 61.2953 33.9846 60.5194C34.8413 60.448 38.2921 60.6423 38.2921 60.6423C43.301 60.0512 43.9865 61.353 43.9865 61.353C43.9865 61.353 41.1435 62.5855 38.9861 62.6884Z" fill="#F38E25"/>
<path opacity="0.5" d="M44.0036 61.2914C44.0635 61.2872 44.2735 61.2705 44.4372 61.2232C44.5748 61.1833 44.5979 60.9975 44.4761 60.923C44.201 60.755 43.5239 60.4159 42.0635 60.0222C42.0509 60.019 42.0383 60.0138 42.0268 60.0075C41.8378 59.9036 40.1255 58.9692 39.9418 59.2464C39.9418 59.2464 39.8841 59.2464 39.8568 59.7219C39.8536 59.7755 39.8253 59.8248 39.7791 59.8532L38.9927 60.3487C38.8605 60.4316 38.9056 60.6343 39.0599 60.6542L43.9711 61.2904C43.9816 61.2915 43.9921 61.2925 44.0036 61.2904V61.2914Z" fill="#FB8C00"/>
<path opacity="0.5" d="M33.4545 61.5101C33.4545 61.5101 30.8005 62.0875 26.9812 62.0529V62.7552H33.6089L33.4545 61.5101Z" fill="#FB8C00"/>
<path opacity="0.5" d="M29.6862 66.5486C29.6862 66.5486 30.2647 66.6389 30.8683 69.1564C30.8683 69.1564 30.5733 69.8178 27.4133 70.0561C27.4133 70.0561 25.9708 70.2745 21.6896 70.2745C21.6896 70.2745 21.5268 70.1884 21.9552 70.0173C21.9552 70.0173 26.3477 68.5013 26.5535 66.9087C26.5535 66.9087 26.7204 65.3801 23.9845 64.6358C23.9845 64.6358 19.2277 62.534 17.4965 62.4647L15.3023 61.9125C15.3023 61.9125 15.212 61.7844 15.8934 61.8222L21.6087 62.3356L26.5409 64.2494L29.6873 66.5486H29.6862Z" fill="#FB8C00"/>
<path d="M29.9585 66.3744C29.6267 65.8296 27.7916 62.8533 27.1691 62.6926C27.1691 62.6926 27.2205 60.3567 25.8504 60.5457C25.8504 60.5457 18.8144 60.4544 18.0722 60.6034C18.0722 60.6034 16.5131 60.615 16.4554 61.5231C16.3977 62.4312 16.7777 62.1835 18.6412 62.2192C18.6926 62.2192 18.7441 62.2202 18.7976 62.2213C20.7997 62.2255 18.6926 62.2213 18.6926 62.2213C18.6926 62.2213 19.9262 62.3115 21.3141 63.0958C21.3141 63.0958 26.3502 65.6815 29.9385 66.5288C29.9805 66.4889 29.99 66.4248 29.9595 66.3755L29.9585 66.3744Z" fill="#F7CCB3"/>
<path d="M34.0565 62.9141C33.5746 62.8795 33.2345 62.4249 33.3416 61.9535C33.4948 61.2816 33.6954 60.552 34.1825 60.509L38.1992 60.573C38.2433 60.573 38.2874 60.5709 38.3315 60.5635C38.8973 60.4775 43.0148 59.9042 43.987 61.2932C43.987 61.2932 44.6095 62.0018 38.3861 62.8627C38.364 62.8659 38.342 62.868 38.3189 62.869C37.9976 62.8858 35.4339 63.0149 34.0555 62.9152L34.0565 62.9141Z" fill="#F6CDB5"/>
<path opacity="0.5" d="M46.0241 65.444C46.0241 65.444 44.9449 67.1395 41.1434 67.8072C41.1434 67.8072 40.8862 68.0045 41.5119 67.9867C41.5119 67.9867 44.2909 68.1148 46.2688 65.6623C46.2688 65.6623 46.4105 65.3537 46.0252 65.444H46.0241Z" fill="#FB8C00"/>
<path opacity="0.5" d="M32.6279 63.6982C32.6279 63.6982 33.1035 64.5591 33.0899 64.8027C33.0899 64.8027 33.5392 65.3675 34.4515 65.7916C34.4515 65.7916 36.0441 66.768 37.2903 66.6388C37.2903 66.6388 37.5475 66.6262 37.2903 66.5486C37.2903 66.5486 34.2205 65.4441 32.7308 63.6972C32.7308 63.6972 32.6279 63.4662 32.6279 63.6972V63.6982Z" fill="#FB8C00"/>
<path opacity="0.5" d="M40.5267 69.6931C40.5267 69.6931 37.2386 71.3372 32.2214 67.6386C32.2214 67.6386 31.4855 67.1588 30.8682 65.7373C30.8682 65.7373 30.8682 65.5064 31.1506 65.7373C31.1506 65.7373 35.5431 69.7362 40.1152 69.6081C40.1152 69.6081 40.7042 69.6196 40.5257 69.6942L40.5267 69.6931Z" fill="#FB8C00"/>
<path opacity="0.5" d="M38.4479 58.7659C38.4479 58.7659 31.9998 61.3863 25.706 59.7422C25.706 59.7422 23.4457 59.0871 22.1743 58.368C22.1743 58.368 22.2258 58.1748 22.9061 58.5097C22.9061 58.5097 27.9422 59.9165 32.6287 59.5375C32.6287 59.5375 37.2921 59.1911 38.4479 58.5611C38.4479 58.5611 38.6149 58.5863 38.4479 58.7669V58.7659Z" fill="#FB8C00"/>
<path opacity="0.5" d="M25.2518 56.5053C25.2518 56.5053 27.8376 57.8071 33.9687 56.7279C33.9687 56.7279 34.5933 56.6764 34.9618 56.5053C34.9618 56.5053 35.724 56.647 32.8212 57.7C32.8212 57.7 28.9168 58.753 25.3074 56.8265C25.3074 56.8265 24.9138 56.6848 25.2518 56.5053Z" fill="#FB8C00"/>
<path opacity="0.5" d="M21.4014 28.766C21.4686 28.5781 21.9022 27.2479 20.9206 26.8154C20.9164 26.8133 20.9122 26.8122 20.908 26.8112C20.8555 26.7965 20.5027 26.6999 20.6571 26.8941C20.6571 26.8941 21.1169 27.1891 21.1515 27.5051C21.1578 27.5618 21.1074 27.608 21.0507 27.6028C20.8859 27.587 20.5426 27.6007 20.36 27.9398C20.3201 28.0133 20.3925 28.0962 20.4702 28.0689C20.488 28.0626 20.5017 28.0511 20.5122 28.0353C20.5689 27.9492 20.7904 27.6637 21.0843 27.8915C21.4266 28.1571 20.9332 28.9875 20.9332 28.9875C20.9332 28.9875 20.9132 29.208 21.3741 28.8038C21.3856 28.7933 21.3951 28.7807 21.4003 28.766H21.4014Z" fill="#B9825F"/>
<path opacity="0.5" d="M42.2234 28.766C42.1562 28.5781 41.7226 27.2479 42.7042 26.8154C42.7084 26.8133 42.7126 26.8122 42.7168 26.8112C42.7693 26.7965 43.1221 26.6999 42.9677 26.8941C42.9677 26.8941 42.5079 27.1891 42.4733 27.5051C42.467 27.5618 42.5174 27.608 42.574 27.6028C42.7389 27.587 43.0822 27.6007 43.2648 27.9398C43.3047 28.0133 43.2323 28.0962 43.1546 28.0689C43.1368 28.0626 43.1231 28.0511 43.1126 28.0353C43.0559 27.9492 42.8344 27.6637 42.5405 27.8915C42.1982 28.1571 42.6916 28.9875 42.6916 28.9875C42.6916 28.9875 42.7116 29.208 42.2507 28.8038C42.2391 28.7933 42.2297 28.7807 42.2244 28.766H42.2234Z" fill="#B9825F"/>
</g>
<defs>
<filter id="filter0_d_1_6690" x="0.130167" y="0.555399" width="62.7424" height="83.4884" filterUnits="userSpaceOnUse" color-interpolation-filters="sRGB">
<feFlood flood-opacity="0" result="BackgroundImageFix"/>
<feColorMatrix in="SourceAlpha" type="matrix" values="0 0 0 0 0 0 0 0 0 0 0 0 0 0 0 0 0 0 127 0" result="hardAlpha"/>
<feOffset/>
<feGaussianBlur stdDeviation="6.6024"/>
<feColorMatrix type="matrix" values="0 0 0 0 0.137255 0 0 0 0 0.121569 0 0 0 0 0.12549 0 0 0 0.2 0"/>
<feBlend mode="normal" in2="BackgroundImageFix" result="effect1_dropShadow_1_6690"/>
<feBlend mode="normal" in="SourceGraphic" in2="effect1_dropShadow_1_6690" result="shape"/>
</filter>
<linearGradient id="paint0_linear_1_6690" x1="40.073" y1="18.2135" x2="7.61396" y2="82.5342" gradientUnits="userSpaceOnUse">
<stop stop-color="#FBAA19"/>
<stop offset="0.82" stop-color="#DA6F27"/>
</linearGradient>
<linearGradient id="paint1_linear_1_6690" x1="0.58252" y1="18.5673" x2="33.7796" y2="18.5673" gradientUnits="userSpaceOnUse">
<stop stop-color="#F9A051"/>
<stop offset="1" stop-color="#BF5527"/>
</linearGradient>
<linearGradient id="paint2_linear_1_6690" x1="28.1507" y1="63.4327" x2="62.4165" y2="63.4327" gradientUnits="userSpaceOnUse">
<stop stop-color="#D45827"/>
<stop offset="1" stop-color="#F99F4C"/>
</linearGradient>
</defs>
</svg>
